<?xml version="1.0" encoding="utf-8"?>
<!-- Generator: Adobe Illustrator 27.5.0, SVG Export Plug-In . SVG Version: 6.00 Build 0)  -->
<svg version="1.1" id="Warstwa_1" xmlns="http://www.w3.org/2000/svg" xmlns:xlink="http://www.w3.org/1999/xlink" x="0px" y="0px"
	 viewBox="0 0 22 22" style="enable-background:new 0 0 22 22;" xml:space="preserve">
<style type="text/css">
	.st0{fill:#83A605;}
</style>
<path class="st0" d="M6.3,0.6c-1.7,0-3,1.3-3,3s1.3,3,3,3s3-1.3,3-3S7.9,0.6,6.3,0.6z"/>
<path class="st0" d="M15.8,0.6c-1.7,0-3,1.3-3,3s1.3,3,3,3s3-1.3,3-3S17.4,0.6,15.8,0.6z"/>
<path class="st0" d="M3,9.3h6.5c0.8,0,1.3,0.7,1.1,1.3L7.4,20.9c-0.3,0.9-1.8,0.9-2.2,0L2,10.6C1.7,9.9,2.3,9.3,3,9.3z"/>
<path class="st0" d="M12.5,21.6H19c0.8,0,1.3-0.7,1.1-1.3L16.9,10c-0.3-0.9-1.8-0.9-2.2,0l-3.2,10.3C11.2,20.9,11.8,21.6,12.5,21.6z
	"/>
</svg>
