<?xml version="1.0" encoding="utf-8"?>
<!-- Generator: Adobe Illustrator 27.5.0, SVG Export Plug-In . SVG Version: 6.00 Build 0)  -->
<svg version="1.1" id="Warstwa_1" xmlns="http://www.w3.org/2000/svg" xmlns:xlink="http://www.w3.org/1999/xlink" x="0px" y="0px"
	 viewBox="0 0 22 22" style="enable-background:new 0 0 22 22;" xml:space="preserve">
<style type="text/css">
	.st0{fill:#83A605;}
</style>
<path class="st0" d="M15.4,5.1C11.8,5,8.8,7.9,8.8,11.4c0,4.1,5.3,9.1,6.3,10c0.1,0.1,0.2,0.1,0.3,0c1-1,6.3-5.9,6.3-10
	C21.8,8,18.9,5.1,15.4,5.1z M15.3,14.4c-1.7,0-3.1-1.4-3.1-3.1c0-1.7,1.4-3.1,3.1-3.1c1.7,0,3.1,1.4,3.1,3.1S17,14.4,15.3,14.4z"/>
<path class="st0" d="M4.3,0.6c-2.2,0-4,1.7-4,3.9c0,2.5,3.3,5.6,3.9,6.2c0,0,0.1,0,0.2,0C5,10.1,8.2,7.1,8.2,4.5
	C8.2,2.4,6.4,0.6,4.3,0.6z M4.2,6.4c-1.1,0-1.9-0.9-1.9-1.9c0-1.1,0.9-1.9,1.9-1.9c1.1,0,1.9,0.9,1.9,1.9C6.2,5.5,5.3,6.4,4.2,6.4z"
	/>
<path class="st0" d="M4.3,11.6"/>
<g>
	<g>
		<path class="st0" d="M5.3,12.3c-0.1,0-0.1,0-0.2,0c-0.1,0-0.3-0.1-0.4-0.1c-0.3-0.1-0.4-0.3-0.4-0.6c0.1-0.3,0.3-0.4,0.6-0.4
			c0.2,0,0.4,0.1,0.5,0.2c0.3,0.1,0.4,0.4,0.3,0.6C5.7,12.2,5.5,12.3,5.3,12.3z"/>
	</g>
	<g>
		<path class="st0" d="M9.9,21.6l-0.3,0c-0.3,0-0.5-0.2-0.5-0.5s0.2-0.5,0.5-0.5l0.6,0l0.4,0c0.3,0,0.5,0.2,0.5,0.5
			s-0.2,0.5-0.5,0.5L9.9,21.6z M7.6,21.5C7.5,21.5,7.5,21.5,7.6,21.5c-0.5,0-0.8-0.1-1.2-0.1C6.1,21.3,6,21.1,6,20.8
			s0.3-0.4,0.6-0.4c0.3,0.1,0.6,0.1,1,0.1c0.3,0,0.5,0.3,0.5,0.5C8,21.3,7.8,21.5,7.6,21.5z M4.8,20.3c-0.2,0-0.4-0.1-0.5-0.3
			c-0.1-0.3-0.2-0.5-0.2-0.9l0-0.1c0-0.1,0-0.2,0-0.3c0-0.3,0.2-0.5,0.5-0.5c0.3,0,0.5,0.3,0.5,0.5c0,0.1,0,0.1,0,0.2l0,0.1
			c0,0.2,0,0.4,0.1,0.5c0.1,0.3,0,0.5-0.3,0.6C4.9,20.2,4.9,20.3,4.8,20.3z M5.5,17.3c-0.1,0-0.2,0-0.3-0.1C5,17,5,16.7,5.1,16.5
			c0.2-0.2,0.3-0.3,0.5-0.5c0.1-0.1,0.2-0.2,0.3-0.3c0.2-0.2,0.5-0.2,0.7,0c0.2,0.2,0.2,0.5,0,0.7c-0.1,0.1-0.2,0.2-0.3,0.3
			C6.2,16.9,6,17,5.9,17.1C5.8,17.3,5.6,17.3,5.5,17.3z M7.1,14.7c-0.3,0-0.5-0.2-0.5-0.5c0-0.3-0.1-0.6-0.1-0.9
			c-0.1-0.3,0-0.5,0.3-0.6c0.3-0.1,0.5,0,0.6,0.3c0.1,0.4,0.2,0.7,0.2,1.2C7.6,14.4,7.3,14.7,7.1,14.7C7.1,14.7,7.1,14.7,7.1,14.7z"
			/>
	</g>
	<g>
		<path class="st0" d="M13.4,21.6C13.4,21.6,13.4,21.6,13.4,21.6l-0.5,0c0,0-0.5-0.1-0.4-0.5c0-0.4,0.5-0.5,0.5-0.5l0.5,0
			c0.3,0,0.5,0.2,0.5,0.5C13.9,21.4,13.7,21.6,13.4,21.6z"/>
	</g>
</g>
</svg>
