<?xml version="1.0" encoding="utf-8"?>
<!-- Generator: Adobe Illustrator 27.5.0, SVG Export Plug-In . SVG Version: 6.00 Build 0)  -->
<svg version="1.1" id="Warstwa_1" xmlns="http://www.w3.org/2000/svg" xmlns:xlink="http://www.w3.org/1999/xlink" x="0px" y="0px"
	 viewBox="0 0 22 22" style="enable-background:new 0 0 22 22;" xml:space="preserve">
<style type="text/css">
	.st0{fill:#83A605;}
</style>
<path class="st0" d="M16.7,11.2H14l-2.7-3.9l0.2-1.5c0-0.1,0-0.1,0-0.2c1.2-0.3,2.1-1.4,2.1-2.7c0-1.6-1.2-2.8-2.8-2.8
	S7.9,1.3,7.9,2.9c0,1.3,0.9,2.4,2.1,2.7l0,0L9.8,7.1L5.5,9.4C5.3,9.5,5.2,9.7,5.1,9.9l-0.6,3.9c-0.1,0.4,0.2,0.8,0.6,0.9h0.1
	c0.4,0,0.7-0.3,0.7-0.6l0.5-3.5l3-1.6l-1.1,8.4l-3.1,3.1c-0.3,0.3-0.3,0.8,0,1.1c0.1,0.1,0.3,0.2,0.5,0.2s0.4-0.1,0.5-0.2l3.3-3.3
	c0.1-0.1,0.2-0.3,0.2-0.4l0.3-2.8l3.8,6.4c0.1,0.2,0.4,0.4,0.6,0.4c0.1,0,0.3,0,0.4-0.1c0.4-0.2,0.5-0.7,0.3-1l-4.7-7.9l-0.1-0.1
	L11,9.6l2,2.8c0.1,0.2,0.4,0.3,0.6,0.3h3.1c0.4,0,0.8-0.3,0.8-0.8S17.1,11.2,16.7,11.2z"/>
</svg>
