<?xml version="1.0" encoding="utf-8"?>
<!-- Generator: Adobe Illustrator 27.5.0, SVG Export Plug-In . SVG Version: 6.00 Build 0)  -->
<svg version="1.1" id="Warstwa_1" xmlns="http://www.w3.org/2000/svg" xmlns:xlink="http://www.w3.org/1999/xlink" x="0px" y="0px"
	 viewBox="0 0 22 22" style="enable-background:new 0 0 22 22;" xml:space="preserve">
<style type="text/css">
	.st0{fill:#83A605;}
</style>
<path class="st0" d="M20.1,0.6H1.9c-1,0-1.8,0.8-1.8,1.8v13.9c0,1,0.8,1.8,1.8,1.8h6.6v1.9H7.7c-0.4,0-0.8,0.3-0.8,0.8
	s0.3,0.8,0.8,0.8h1.5h3.7h1.5c0.4,0,0.8-0.3,0.8-0.8s-0.3-0.8-0.8-0.8h-0.8V18h6.4c1,0,1.8-0.7,1.8-1.8V2.3
	C21.8,1.4,21.1,0.6,20.1,0.6z M1.9,2.1h18.2c0.2,0,0.2,0.2,0.2,0.2v12.3H1.6V2.3C1.6,2.3,1.7,2.1,1.9,2.1z"/>
</svg>
