<?xml version="1.0" encoding="utf-8"?>
<!-- Generator: Adobe Illustrator 27.5.0, SVG Export Plug-In . SVG Version: 6.00 Build 0)  -->
<svg version="1.1" id="Warstwa_1" xmlns="http://www.w3.org/2000/svg" xmlns:xlink="http://www.w3.org/1999/xlink" x="0px" y="0px"
	 viewBox="0 0 22 22" style="enable-background:new 0 0 22 22;" xml:space="preserve">
<style type="text/css">
	.st0{fill:#83A605;}
</style>
<path class="st0" d="M18.4,3.8c-0.1-2.1-1.5-3.4-3.5-3.4c-0.4,0-0.8,0.3-0.8,0.8v11.2v8.5c0,0.4,0.3,0.8,0.8,0.8s0.8-0.3,0.8-0.8
	v-7.8c1.7-0.3,2.8-1.6,2.8-3.4L18.4,3.8C18.4,3.8,18.4,3.8,18.4,3.8z"/>
<path class="st0" d="M10.6,0.4c-0.4,0-0.8,0.3-0.8,0.8v4.7H8.3V1.2c0-0.4-0.3-0.8-0.8-0.8c0,0,0,0,0,0c0,0,0,0,0,0
	C7,0.4,6.7,0.7,6.7,1.2v4.7H5.1V1.2c0-0.4-0.3-0.8-0.8-0.8S3.6,0.7,3.6,1.2c0,0,0,5.4,0,5.5c0,0,0,0.2,0,0.2C3.7,7.6,4,8.2,4.5,8.7
	c0,0,0.2,0.2,0.2,0.2c0.5,0.4,1.1,0.8,1.9,0.9v10.9c0,0.4,0.3,0.8,0.8,0.8c0,0,0,0,0,0c0,0,0,0,0,0c0.4,0,0.8-0.3,0.8-0.8V9.9
	C9.1,9.8,9.7,9.4,10.2,9c0.1-0.1,0.2-0.2,0.2-0.2c0.5-0.5,0.9-1.2,0.9-1.9c0,0,0-0.2,0-0.2c0,0,0-5.5,0-5.5
	C11.4,0.7,11.1,0.4,10.6,0.4z"/>
</svg>
