<?xml version="1.0" encoding="UTF-8"?><svg id="Warstwa_2" xmlns="http://www.w3.org/2000/svg" viewBox="0 0 939.51 271.24"><defs><style>.cls-1{fill:#fff;}</style></defs><g id="Warstwa_1-2"><path class="cls-1" d="m439.83,174.01c-12.04,0-22.33-2.46-30.87-7.38-8.54-4.92-15.11-12-19.71-21.26-4.6-9.25-6.89-20.29-6.89-33.1,0-10.49,1.52-19.93,4.56-28.35,3.04-8.41,7.54-15.53,13.49-21.36,5.95-5.83,13.11-10.29,21.46-13.4,8.35-3.11,17.83-4.66,28.44-4.66,4.14,0,8.45.26,12.91.78,4.47.52,8.64,1.1,12.52,1.75,3.88.65,8.28,1.43,13.2,2.33l1.36,3.11c-1.43,6.86-2.56,13.2-3.4,19.03-.84,5.82-1.46,12.43-1.84,19.8l-23.69,1.36c.26-4.27.39-7.77.39-10.49,0-5.56-1.43-9.54-4.27-11.94-2.85-2.39-7.38-3.59-13.59-3.59-5.82,0-10.61,1.36-14.37,4.08-3.76,2.72-6.54,6.93-8.35,12.62-1.81,5.7-2.72,13.08-2.72,22.13,0,10.1,1.03,18.64,3.11,25.63,2.07,6.99,5.08,12.23,9.03,15.73,3.95,3.5,8.77,5.24,14.47,5.24,6.08,0,10.74-1.94,13.98-5.82,3.23-3.88,5.44-10.29,6.6-19.22l23.69-1.55c-.65,4.66-1.16,8.9-1.55,12.72-.39,3.82-.75,8-1.07,12.52-.32,4.53-.55,8.93-.68,13.2l-2.13,2.72c-7.9,2.46-15.18,4.31-21.84,5.53-6.67,1.23-14.08,1.85-22.23,1.85Z"/><path class="cls-1" d="m500.76,172.99l1.11-11.57c4.54-.85,7.5-2.14,8.88-3.89,1.37-1.74,2.06-4.84,2.06-9.28l.16-58.51c0-3.28-.37-5.47-1.11-6.58-.74-1.11-2.28-1.67-4.6-1.67-.64,0-1.38.03-2.22.08-.85.05-1.59.13-2.22.24l-1.11-1.74,1.11-10.46c2.85,0,6.26.03,10.23.08,3.96.06,7.11.08,9.43.08s5.89-.1,10.7-.32c4.81-.21,10.28-.42,16.41-.64l-.95,12.05c-2.43.42-4.28.95-5.55,1.58-1.27.64-2.14,1.59-2.62,2.86s-.77,3.17-.87,5.71l-.95,21.09,17.44.48c3.17,0,5.97-.08,8.4-.24,2.43-.16,5.13-.4,8.09-.71v-21.88c0-3.17-.37-5.34-1.11-6.5-.74-1.16-2.27-1.74-4.6-1.74-.64,0-1.4.03-2.3.08-.9.05-1.67.13-2.3.24l-1.11-1.74,1.27-10.46c1.69,0,3.94.03,6.74.08,2.8.06,5.65.08,8.56.08h7.21c1.9,0,5.05-.1,9.43-.32,4.38-.21,9.64-.42,15.78-.64l-.95,11.89c-3.81.53-6.32,1.35-7.53,2.46-1.22,1.11-1.93,3.2-2.14,6.26-.32,3.91-.58,8.32-.79,13.24-.21,4.92-.4,10.02-.56,15.3-.16,5.29-.29,10.49-.4,15.62-.11,5.13-.16,9.86-.16,14.19,0,4.76.48,7.98,1.43,9.67.95,1.69,2.64,2.54,5.08,2.54.95,0,1.93-.05,2.93-.16,1-.1,1.77-.21,2.3-.32l.95,1.43-1.43,11.26c-3.17-.11-7.14-.19-11.89-.24-4.76-.05-9.04-.08-12.84-.08h-6.74c-2.8,0-5.74.03-8.8.08-3.07.05-5.87.08-8.4.08l1.43-11.73c2.75-.1,4.92-.55,6.5-1.35,1.58-.79,2.72-2.16,3.41-4.12.69-1.95,1.03-4.62,1.03-8.01v-18.55c-1.27,0-2.75-.02-4.44-.08-1.69-.05-3.38-.08-5.08-.08h-4.44c-.74,0-2.22.05-4.44.16-2.22.11-4.73.27-7.53.48-2.8.21-5.63.48-8.48.79l-.16,19.66c0,4.44.4,7.37,1.19,8.8.79,1.43,2.3,2.14,4.52,2.14.85,0,1.74-.05,2.7-.16.95-.1,1.74-.21,2.38-.32l.95,1.27-1.43,11.57c-1.9-.11-4.28-.21-7.14-.32-2.85-.11-5.63-.19-8.33-.24-2.7-.05-4.84-.08-6.42-.08-2.12,0-4.71.05-7.77.16-3.07.1-6.16.24-9.28.4-3.12.16-6,.34-8.64.55Z"/><path class="cls-1" d="m670.43,171.72l.79-11.26c3.38-.32,5.87-.64,7.45-.95,1.58-.32,2.64-.82,3.17-1.51.53-.69.79-1.72.79-3.09,0-.53-.06-1.13-.16-1.82-.11-.69-.26-1.51-.48-2.46l-2.38-9.51c-2.01-.1-4.34-.18-6.98-.24-2.65-.05-4.81-.08-6.5-.08-2.12,0-4.47.11-7.06.32-2.59.21-4.94.42-7.06.63l-2.86,9.83c-.53,2.12-.79,3.59-.79,4.44,0,1.58.45,2.67,1.35,3.25.9.58,2.56.87,4.99.87h5.71l.95,1.27-1.27,11.26c-5.18-.32-9.57-.5-13.16-.55-3.6-.06-7.08-.08-10.47-.08h-9.2c-3.07,0-6.66.05-10.78.16l1.11-11.89c2.22-.42,4.1-1.37,5.63-2.85,1.53-1.48,2.77-3.75,3.73-6.82l26.96-80.08,32.19-2.54,2.06,1.27c1.37,5.71,2.7,10.94,3.96,15.7,1.27,4.76,2.67,10.04,4.2,15.86,1.53,5.81,3.09,11.73,4.68,17.76,1.58,6.02,3.12,11.73,4.6,17.12,1.48,5.39,2.8,9.99,3.96,13.79,1.06,3.7,2.4,6.37,4.04,8.01,1.64,1.64,3.99,2.56,7.06,2.77l.95,1.43-1.27,10.62c-4.76-.11-8.75-.19-11.97-.24-3.23-.06-6.11-.08-8.64-.08-4.76,0-9.3.08-13.64.24-4.34.16-9.25.4-14.75.71l-.95-1.27Zm-13.95-46.14h9.83c1.48,0,3.2-.05,5.15-.16,1.95-.1,3.67-.21,5.15-.32l-7.61-32.03h-2.7l-9.83,32.51Z"/><path class="cls-1" d="m736.55,172.99l1.27-12.21c4.44-.42,7.77-1.03,9.99-1.82,2.22-.79,3.73-2.22,4.52-4.28.79-2.06,1.19-5.1,1.19-9.12v-60.57c-3.38.11-6.05.4-8.01.87-1.96.48-3.49,1.43-4.6,2.85-1.11,1.43-1.96,3.52-2.54,6.26-.58,2.75-1.09,6.45-1.51,11.1l-15.86,1.11c.21-3.91.42-8.11.64-12.61.21-4.49.42-8.9.63-13.24.21-4.33.32-8.14.32-11.42l1.9-1.9,17.12,1.74h49.47l17.6-1.74,1.74,1.9c.1,4.23.21,8.59.32,13.08.1,4.49.26,8.75.48,12.76.21,4.02.37,7.45.48,10.31l-15.86,1.11c-.53-5.07-1.06-9.06-1.58-11.97-.53-2.91-1.3-5.07-2.3-6.5-1.01-1.43-2.43-2.38-4.28-2.85-1.85-.48-4.41-.76-7.69-.87-.11,4.02-.24,8.56-.4,13.64-.16,5.08-.29,10.49-.4,16.25-.11,5.76-.21,11.55-.32,17.36-.11,5.81-.16,11.36-.16,16.65,0,3.91.66,6.69,1.98,8.32,1.32,1.64,3.51,2.46,6.58,2.46,2.22,0,4.97-.16,8.25-.48l.63.95-1.43,12.53c-3.07-.21-6.5-.34-10.31-.4-3.8-.06-7.45-.13-10.94-.24-3.49-.11-6.24-.16-8.24-.16s-4.47.05-7.69.16c-3.22.1-6.69.24-10.39.4-3.7.16-7.24.34-10.62.55Z"/><path class="cls-1" d="m876.8,171.68l.97-13.78c4.14-.39,7.18-.78,9.13-1.17,1.94-.39,3.23-1,3.88-1.84.65-.84.97-2.1.97-3.79,0-.65-.07-1.39-.19-2.23-.13-.84-.33-1.85-.58-3.01l-2.91-11.65c-2.46-.13-5.31-.22-8.54-.29-3.24-.06-5.89-.1-7.96-.1-2.59,0-5.47.13-8.64.39-3.17.26-6.05.52-8.64.78l-3.5,12.04c-.65,2.59-.97,4.4-.97,5.44,0,1.94.55,3.27,1.65,3.98,1.1.71,3.14,1.07,6.12,1.07h6.99l1.17,1.55-1.55,13.78c-6.34-.39-11.72-.61-16.12-.68-4.4-.07-8.67-.1-12.81-.1h-11.26c-3.76,0-8.15.06-13.2.19l1.36-14.56c2.72-.52,5.02-1.68,6.89-3.5,1.88-1.81,3.4-4.59,4.56-8.35l33.01-98.05,39.41-3.11,2.52,1.55c1.68,6.99,3.3,13.4,4.85,19.22,1.55,5.82,3.27,12.3,5.15,19.42,1.87,7.12,3.79,14.37,5.73,21.74,1.94,7.38,3.82,14.37,5.63,20.97,1.81,6.6,3.43,12.23,4.85,16.89,1.29,4.53,2.94,7.8,4.95,9.8,2.01,2.01,4.88,3.14,8.64,3.4l1.16,1.75-1.55,13.01c-5.82-.13-10.71-.23-14.66-.29-3.95-.07-7.48-.1-10.58-.1-5.83,0-11.39.1-16.7.29-5.31.19-11.33.49-18.06.87l-1.16-1.55Zm-17.09-56.5h12.04c1.81,0,3.91-.06,6.31-.19,2.39-.13,4.5-.26,6.31-.39l-9.32-39.22h-3.3l-12.04,39.8Z"/><path class="cls-1" d="m433.95,224.14v46.44h-7.1l-25.61-31.45v31.45h-8.56v-46.44h7.1l25.61,31.45v-31.45h8.56Z"/><path class="cls-1" d="m478.19,259.83h-23.22l-4.58,10.75h-8.89l20.9-46.44h8.49l20.96,46.44h-9.02l-4.65-10.75Zm-2.85-6.77l-8.76-20.3-8.69,20.3h17.45Z"/><path class="cls-1" d="m558.26,240.66c0,10.22-7.56,16.52-19.77,16.52h-10.48v13.4h-8.62v-46.44h19.1c12.21,0,19.77,6.23,19.77,16.52Zm-8.69,0c0-5.84-3.91-9.22-11.48-9.22h-10.08v18.44h10.08c7.56,0,11.48-3.38,11.48-9.22Z"/><path class="cls-1" d="m598.93,270.57l-9.49-13.6c-.6.07-1.19.07-1.79.07h-10.48v13.53h-8.62v-46.44h19.1c12.21,0,19.77,6.23,19.77,16.52,0,7.03-3.58,12.21-9.88,14.66l10.68,15.26h-9.29Zm-11.68-39.14h-10.08v18.51h10.08c7.56,0,11.48-3.45,11.48-9.29s-3.91-9.22-11.48-9.22Z"/><path class="cls-1" d="m654.78,263.28v7.3h-39.6v-5.77l27.33-33.37h-26.87v-7.3h38.28v5.77l-27.33,33.37h28.19Z"/><path class="cls-1" d="m699.16,263.34v7.23h-34.83v-46.44h33.9v7.23h-25.27v12.07h22.42v7.1h-22.42v12.8h26.2Z"/><path class="cls-1" d="m741.95,246.83h8.16v18.51c-4.84,3.91-11.61,5.9-18.18,5.9-14.39,0-25.01-10.02-25.01-23.88s10.61-23.88,25.14-23.88c7.76,0,14.26,2.59,18.64,7.56l-5.44,5.31c-3.65-3.65-7.83-5.31-12.8-5.31-9.88,0-16.85,6.7-16.85,16.32s6.96,16.32,16.78,16.32c3.32,0,6.57-.66,9.55-2.39v-14.46Z"/><path class="cls-1" d="m763.11,224.14h8.62v46.44h-8.62v-46.44Z"/><path class="cls-1" d="m827.19,257.97c0,7.96-6.23,12.6-18.18,12.6h-23.08v-46.44h21.76c11.15,0,17.12,4.71,17.12,12.07,0,4.78-2.39,8.29-5.97,10.22,4.97,1.59,8.36,5.5,8.36,11.54Zm-32.64-27.07v12.8h12.2c5.97,0,9.35-2.12,9.35-6.37s-3.38-6.44-9.35-6.44h-12.2Zm23.95,26.2c0-4.64-3.52-6.7-10.02-6.7h-13.93v13.4h13.93c6.5,0,10.02-2.06,10.02-6.7Z"/><path class="cls-1" d="m854.06,251.14l-7.36,7.56v11.87h-8.62v-46.44h8.62v23.81l22.95-23.81h9.69l-19.5,20.76,20.7,25.67h-10.08l-16.39-19.44Z"/><path class="cls-1" d="m887.03,250.34v-26.2h8.62v25.87c0,9.55,4.31,13.67,11.81,13.67s11.74-4.11,11.74-13.67v-25.87h8.49v26.2c0,13.53-7.63,20.9-20.3,20.9s-20.37-7.36-20.37-20.9Z"/><path class="cls-1" d="m282.7,173.72h16.08c1.06,0,1.74-1.11,1.27-2.06l-31.38-62.17c-.48-.94.21-2.06,1.27-2.06h8.19c1.05,0,1.74-1.1,1.27-2.05l-31.22-63.11c-.52-1.05-2.02-1.05-2.54,0l-25.56,51.59c-.49,1-1.89,1.06-2.48.11L160.09.67c-.55-.9-1.86-.9-2.41,0l-57.71,93.49c-.58.95-1.98.88-2.48-.12l-25.61-51.76c-.52-1.05-2.02-1.05-2.54,0l-31.26,63.11c-.47.94.22,2.05,1.27,2.05h8.19c1.06,0,1.74,1.11,1.27,2.06l-31.38,62.17c-.48.94.21,2.06,1.27,2.06h16.08c1.05,0,1.74,1.11,1.27,2.05L.15,247.55c-.4.8.03,1.77.9,2.01,27.14,7.37,55.05,12.88,83.58,16.39.85.1,1.6-.56,1.6-1.41v-72.89c0-.78-.63-1.42-1.42-1.42h-11.41c-1.19,0-1.85-1.38-1.1-2.31l84.9-104.83c.57-.7,1.64-.7,2.2,0l84.66,104.83c.75.93.09,2.31-1.1,2.31h-11.42c-.78,0-1.42.63-1.42,1.42v73.02c0,.85.75,1.52,1.59,1.41,28.91-3.51,57.2-9.07,84.69-16.53.87-.23,1.3-1.21.9-2.01l-35.88-71.76c-.47-.94.21-2.05,1.27-2.05ZM91.53,107.83l-.2-.39h.44l-.24.39Zm134.5-.17l-.14-.22h.25l-.11.22Z"/><path class="cls-1" d="m138.05,268.74c0,.77.61,1.4,1.37,1.42,6.4.2,12.82.31,19.27.31s12.92-.11,19.34-.32c.77-.02,1.37-.65,1.37-1.42v-55.72c0-.78-.63-1.42-1.42-1.42h-38.53c-.78,0-1.42.63-1.42,1.42v55.73Z"/></g></svg>